<mxfile host="app.diagrams.net" agent="Mozilla/5.0 (X11; Linux x86_64) AppleWebKit/537.36 (KHTML, like Gecko) Chrome/131.0.0.0 Safari/537.36" version="28.1.2">
  <diagram name="Page-1" id="e7e014a7-5840-1c2e-5031-d8a46d1fe8dd">
    <mxGraphModel dx="2954" dy="1180" grid="1" gridSize="10" guides="1" tooltips="1" connect="1" arrows="1" fold="1" page="1" pageScale="1" pageWidth="1169" pageHeight="826" background="none" math="0" shadow="0">
      <root>
        <mxCell id="0" />
        <mxCell id="1" parent="0" />
        <mxCell id="QkMC-CX41yp0y5uiUr3O-45" style="edgeStyle=orthogonalEdgeStyle;rounded=0;orthogonalLoop=1;jettySize=auto;html=1;exitX=1;exitY=0.5;exitDx=0;exitDy=0;entryX=0;entryY=0.5;entryDx=0;entryDy=0;" edge="1" parent="1" source="QkMC-CX41yp0y5uiUr3O-41" target="QkMC-CX41yp0y5uiUr3O-44">
          <mxGeometry relative="1" as="geometry">
            <Array as="points">
              <mxPoint x="660" y="717.5" />
              <mxPoint x="660" y="510.5" />
            </Array>
          </mxGeometry>
        </mxCell>
        <mxCell id="QkMC-CX41yp0y5uiUr3O-93" style="edgeStyle=orthogonalEdgeStyle;rounded=0;orthogonalLoop=1;jettySize=auto;html=1;exitX=0;exitY=0.5;exitDx=0;exitDy=0;entryX=1;entryY=0.5;entryDx=0;entryDy=0;" edge="1" parent="1" source="QkMC-CX41yp0y5uiUr3O-41" target="QkMC-CX41yp0y5uiUr3O-88">
          <mxGeometry relative="1" as="geometry">
            <Array as="points">
              <mxPoint x="120" y="776" />
              <mxPoint x="120" y="390" />
            </Array>
          </mxGeometry>
        </mxCell>
        <mxCell id="QkMC-CX41yp0y5uiUr3O-94" style="edgeStyle=orthogonalEdgeStyle;rounded=0;orthogonalLoop=1;jettySize=auto;html=1;exitX=0;exitY=0.5;exitDx=0;exitDy=0;entryX=1;entryY=0.5;entryDx=0;entryDy=0;" edge="1" parent="1" source="QkMC-CX41yp0y5uiUr3O-41" target="QkMC-CX41yp0y5uiUr3O-89">
          <mxGeometry relative="1" as="geometry">
            <Array as="points">
              <mxPoint x="130" y="776" />
              <mxPoint x="130" y="298" />
            </Array>
          </mxGeometry>
        </mxCell>
        <mxCell id="QkMC-CX41yp0y5uiUr3O-96" style="edgeStyle=orthogonalEdgeStyle;rounded=0;orthogonalLoop=1;jettySize=auto;html=1;exitX=0;exitY=0.5;exitDx=0;exitDy=0;entryX=1;entryY=0.5;entryDx=0;entryDy=0;" edge="1" parent="1" source="QkMC-CX41yp0y5uiUr3O-41" target="QkMC-CX41yp0y5uiUr3O-91">
          <mxGeometry relative="1" as="geometry">
            <Array as="points">
              <mxPoint x="140" y="776" />
              <mxPoint x="140" y="210" />
            </Array>
          </mxGeometry>
        </mxCell>
        <mxCell id="QkMC-CX41yp0y5uiUr3O-41" value="&lt;font style=&quot;font-size: 21px;&quot;&gt;leilao_iniciado&lt;/font&gt;" style="shape=hexagon;perimeter=hexagonPerimeter2;whiteSpace=wrap;html=1;fixedSize=1;" vertex="1" parent="1">
          <mxGeometry x="420" y="736" width="170" height="80" as="geometry" />
        </mxCell>
        <mxCell id="QkMC-CX41yp0y5uiUr3O-55" style="edgeStyle=orthogonalEdgeStyle;rounded=0;orthogonalLoop=1;jettySize=auto;html=1;exitX=0;exitY=0.5;exitDx=0;exitDy=0;entryX=1;entryY=0.5;entryDx=0;entryDy=0;" edge="1" parent="1" source="QkMC-CX41yp0y5uiUr3O-42" target="QkMC-CX41yp0y5uiUr3O-68">
          <mxGeometry relative="1" as="geometry">
            <Array as="points">
              <mxPoint x="420" y="193" />
            </Array>
          </mxGeometry>
        </mxCell>
        <mxCell id="QkMC-CX41yp0y5uiUr3O-56" value="&lt;font style=&quot;font-size: 16px;&quot;&gt;leilao_1, leilao_2, leilao_n&lt;/font&gt;" style="edgeLabel;html=1;align=center;verticalAlign=middle;resizable=0;points=[];" vertex="1" connectable="0" parent="QkMC-CX41yp0y5uiUr3O-55">
          <mxGeometry x="0.2041" relative="1" as="geometry">
            <mxPoint x="9" y="-20" as="offset" />
          </mxGeometry>
        </mxCell>
        <mxCell id="QkMC-CX41yp0y5uiUr3O-57" style="edgeStyle=orthogonalEdgeStyle;rounded=0;orthogonalLoop=1;jettySize=auto;html=1;exitX=0;exitY=0.5;exitDx=0;exitDy=0;entryX=1;entryY=0.5;entryDx=0;entryDy=0;" edge="1" parent="1" source="QkMC-CX41yp0y5uiUr3O-42" target="QkMC-CX41yp0y5uiUr3O-66">
          <mxGeometry relative="1" as="geometry" />
        </mxCell>
        <mxCell id="QkMC-CX41yp0y5uiUr3O-58" value="&lt;font style=&quot;font-size: 16px;&quot;&gt;leilao_1&lt;/font&gt;" style="edgeLabel;html=1;align=center;verticalAlign=middle;resizable=0;points=[];" vertex="1" connectable="0" parent="QkMC-CX41yp0y5uiUr3O-57">
          <mxGeometry x="0.1388" y="-2" relative="1" as="geometry">
            <mxPoint y="-16" as="offset" />
          </mxGeometry>
        </mxCell>
        <mxCell id="QkMC-CX41yp0y5uiUr3O-59" style="edgeStyle=orthogonalEdgeStyle;rounded=0;orthogonalLoop=1;jettySize=auto;html=1;exitX=0;exitY=0.5;exitDx=0;exitDy=0;entryX=1;entryY=0.5;entryDx=0;entryDy=0;" edge="1" parent="1" source="QkMC-CX41yp0y5uiUr3O-42" target="QkMC-CX41yp0y5uiUr3O-63">
          <mxGeometry relative="1" as="geometry">
            <Array as="points">
              <mxPoint x="420" y="375" />
              <mxPoint x="290" y="375" />
              <mxPoint x="290" y="373" />
            </Array>
          </mxGeometry>
        </mxCell>
        <mxCell id="QkMC-CX41yp0y5uiUr3O-60" value="&lt;font style=&quot;font-size: 16px;&quot;&gt;leilao_1, leilao_2&lt;/font&gt;" style="edgeLabel;html=1;align=center;verticalAlign=middle;resizable=0;points=[];" vertex="1" connectable="0" parent="QkMC-CX41yp0y5uiUr3O-59">
          <mxGeometry x="0.4404" y="-5" relative="1" as="geometry">
            <mxPoint x="24" y="-11" as="offset" />
          </mxGeometry>
        </mxCell>
        <mxCell id="QkMC-CX41yp0y5uiUr3O-42" value="&lt;font style=&quot;font-size: 21px;&quot;&gt;notificacoes&lt;/font&gt;" style="shape=hexagon;perimeter=hexagonPerimeter2;whiteSpace=wrap;html=1;fixedSize=1;" vertex="1" parent="1">
          <mxGeometry x="420" y="240" width="170" height="80" as="geometry" />
        </mxCell>
        <mxCell id="QkMC-CX41yp0y5uiUr3O-79" style="edgeStyle=orthogonalEdgeStyle;rounded=0;orthogonalLoop=1;jettySize=auto;html=1;exitX=0.5;exitY=0;exitDx=0;exitDy=0;entryX=0.5;entryY=1;entryDx=0;entryDy=0;" edge="1" parent="1" source="QkMC-CX41yp0y5uiUr3O-43" target="QkMC-CX41yp0y5uiUr3O-78">
          <mxGeometry relative="1" as="geometry" />
        </mxCell>
        <mxCell id="QkMC-CX41yp0y5uiUr3O-82" style="edgeStyle=orthogonalEdgeStyle;rounded=0;orthogonalLoop=1;jettySize=auto;html=1;exitX=0.5;exitY=0;exitDx=0;exitDy=0;entryX=0.5;entryY=1;entryDx=0;entryDy=0;" edge="1" parent="1" source="QkMC-CX41yp0y5uiUr3O-43" target="QkMC-CX41yp0y5uiUr3O-81">
          <mxGeometry relative="1" as="geometry" />
        </mxCell>
        <mxCell id="QkMC-CX41yp0y5uiUr3O-43" value="&lt;font style=&quot;font-size: 26px;&quot;&gt;bid-srv&lt;/font&gt;" style="rounded=0;whiteSpace=wrap;html=1;" vertex="1" parent="1">
          <mxGeometry x="900" y="460" width="200" height="100" as="geometry" />
        </mxCell>
        <mxCell id="QkMC-CX41yp0y5uiUr3O-46" style="edgeStyle=orthogonalEdgeStyle;rounded=0;orthogonalLoop=1;jettySize=auto;html=1;exitX=1;exitY=0.5;exitDx=0;exitDy=0;entryX=0;entryY=0.5;entryDx=0;entryDy=0;" edge="1" parent="1" source="QkMC-CX41yp0y5uiUr3O-44" target="QkMC-CX41yp0y5uiUr3O-43">
          <mxGeometry relative="1" as="geometry" />
        </mxCell>
        <mxCell id="QkMC-CX41yp0y5uiUr3O-44" value="" style="ellipse;whiteSpace=wrap;html=1;" vertex="1" parent="1">
          <mxGeometry x="750" y="495" width="70" height="30" as="geometry" />
        </mxCell>
        <mxCell id="QkMC-CX41yp0y5uiUr3O-48" style="edgeStyle=orthogonalEdgeStyle;rounded=0;orthogonalLoop=1;jettySize=auto;html=1;entryX=1;entryY=0.5;entryDx=0;entryDy=0;" edge="1" parent="1" source="QkMC-CX41yp0y5uiUr3O-47" target="QkMC-CX41yp0y5uiUr3O-41">
          <mxGeometry relative="1" as="geometry" />
        </mxCell>
        <mxCell id="QkMC-CX41yp0y5uiUr3O-86" style="edgeStyle=orthogonalEdgeStyle;rounded=0;orthogonalLoop=1;jettySize=auto;html=1;exitX=0.5;exitY=0;exitDx=0;exitDy=0;entryX=0.5;entryY=1;entryDx=0;entryDy=0;" edge="1" parent="1" source="QkMC-CX41yp0y5uiUr3O-47" target="QkMC-CX41yp0y5uiUr3O-84">
          <mxGeometry relative="1" as="geometry" />
        </mxCell>
        <mxCell id="QkMC-CX41yp0y5uiUr3O-47" value="&lt;span style=&quot;font-size: 26px;&quot;&gt;auction-srv&lt;/span&gt;" style="rounded=0;whiteSpace=wrap;html=1;" vertex="1" parent="1">
          <mxGeometry x="900" y="726" width="200" height="100" as="geometry" />
        </mxCell>
        <mxCell id="QkMC-CX41yp0y5uiUr3O-76" style="edgeStyle=orthogonalEdgeStyle;rounded=0;orthogonalLoop=1;jettySize=auto;html=1;exitX=1;exitY=0.75;exitDx=0;exitDy=0;entryX=0;entryY=0.5;entryDx=0;entryDy=0;" edge="1" parent="1" source="QkMC-CX41yp0y5uiUr3O-51" target="QkMC-CX41yp0y5uiUr3O-72">
          <mxGeometry relative="1" as="geometry">
            <Array as="points">
              <mxPoint x="-80" y="225" />
              <mxPoint x="-30" y="225" />
              <mxPoint x="-30" y="600" />
            </Array>
          </mxGeometry>
        </mxCell>
        <mxCell id="QkMC-CX41yp0y5uiUr3O-51" value="&lt;font style=&quot;font-size: 26px;&quot;&gt;client&lt;/font&gt;" style="rounded=0;whiteSpace=wrap;html=1;" vertex="1" parent="1">
          <mxGeometry x="-230" y="177.5" width="150" height="60" as="geometry" />
        </mxCell>
        <mxCell id="QkMC-CX41yp0y5uiUr3O-75" style="edgeStyle=orthogonalEdgeStyle;rounded=0;orthogonalLoop=1;jettySize=auto;html=1;exitX=1;exitY=0.75;exitDx=0;exitDy=0;entryX=0;entryY=0.5;entryDx=0;entryDy=0;" edge="1" parent="1" source="QkMC-CX41yp0y5uiUr3O-52" target="QkMC-CX41yp0y5uiUr3O-72">
          <mxGeometry relative="1" as="geometry">
            <Array as="points">
              <mxPoint x="-80" y="316" />
              <mxPoint x="-40" y="316" />
              <mxPoint x="-40" y="600" />
            </Array>
          </mxGeometry>
        </mxCell>
        <mxCell id="QkMC-CX41yp0y5uiUr3O-52" value="&lt;font style=&quot;font-size: 26px;&quot;&gt;client&lt;/font&gt;" style="rounded=0;whiteSpace=wrap;html=1;" vertex="1" parent="1">
          <mxGeometry x="-230" y="265" width="150" height="65" as="geometry" />
        </mxCell>
        <mxCell id="QkMC-CX41yp0y5uiUr3O-74" style="edgeStyle=orthogonalEdgeStyle;rounded=0;orthogonalLoop=1;jettySize=auto;html=1;exitX=1;exitY=0.75;exitDx=0;exitDy=0;entryX=0;entryY=0.5;entryDx=0;entryDy=0;" edge="1" parent="1" source="QkMC-CX41yp0y5uiUr3O-53" target="QkMC-CX41yp0y5uiUr3O-72">
          <mxGeometry relative="1" as="geometry">
            <Array as="points">
              <mxPoint x="-80" y="409" />
              <mxPoint x="-50" y="409" />
              <mxPoint x="-50" y="600" />
            </Array>
          </mxGeometry>
        </mxCell>
        <mxCell id="QkMC-CX41yp0y5uiUr3O-53" value="&lt;font style=&quot;font-size: 26px;&quot;&gt;client&lt;/font&gt;" style="rounded=0;whiteSpace=wrap;html=1;" vertex="1" parent="1">
          <mxGeometry x="-230" y="357.5" width="150" height="65" as="geometry" />
        </mxCell>
        <mxCell id="QkMC-CX41yp0y5uiUr3O-64" style="edgeStyle=orthogonalEdgeStyle;rounded=0;orthogonalLoop=1;jettySize=auto;html=1;exitX=0;exitY=0.5;exitDx=0;exitDy=0;entryX=1;entryY=0.25;entryDx=0;entryDy=0;" edge="1" parent="1" source="QkMC-CX41yp0y5uiUr3O-63" target="QkMC-CX41yp0y5uiUr3O-53">
          <mxGeometry relative="1" as="geometry">
            <Array as="points">
              <mxPoint x="140" y="370" />
              <mxPoint x="30" y="370" />
              <mxPoint x="30" y="374" />
            </Array>
          </mxGeometry>
        </mxCell>
        <mxCell id="QkMC-CX41yp0y5uiUr3O-63" value="" style="ellipse;whiteSpace=wrap;html=1;" vertex="1" parent="1">
          <mxGeometry x="180" y="357.5" width="60" height="30" as="geometry" />
        </mxCell>
        <mxCell id="QkMC-CX41yp0y5uiUr3O-67" style="edgeStyle=orthogonalEdgeStyle;rounded=0;orthogonalLoop=1;jettySize=auto;html=1;exitX=0;exitY=0.5;exitDx=0;exitDy=0;entryX=1;entryY=0.25;entryDx=0;entryDy=0;" edge="1" parent="1" source="QkMC-CX41yp0y5uiUr3O-66" target="QkMC-CX41yp0y5uiUr3O-52">
          <mxGeometry relative="1" as="geometry" />
        </mxCell>
        <mxCell id="QkMC-CX41yp0y5uiUr3O-66" value="" style="ellipse;whiteSpace=wrap;html=1;" vertex="1" parent="1">
          <mxGeometry x="180" y="265" width="60" height="30" as="geometry" />
        </mxCell>
        <mxCell id="QkMC-CX41yp0y5uiUr3O-69" style="edgeStyle=orthogonalEdgeStyle;rounded=0;orthogonalLoop=1;jettySize=auto;html=1;exitX=0;exitY=0.5;exitDx=0;exitDy=0;entryX=1;entryY=0.25;entryDx=0;entryDy=0;" edge="1" parent="1" source="QkMC-CX41yp0y5uiUr3O-68" target="QkMC-CX41yp0y5uiUr3O-51">
          <mxGeometry relative="1" as="geometry" />
        </mxCell>
        <mxCell id="QkMC-CX41yp0y5uiUr3O-68" value="" style="ellipse;whiteSpace=wrap;html=1;" vertex="1" parent="1">
          <mxGeometry x="180" y="177.5" width="60" height="30" as="geometry" />
        </mxCell>
        <mxCell id="QkMC-CX41yp0y5uiUr3O-71" style="edgeStyle=orthogonalEdgeStyle;rounded=0;orthogonalLoop=1;jettySize=auto;html=1;entryX=1;entryY=0.5;entryDx=0;entryDy=0;" edge="1" parent="1" source="QkMC-CX41yp0y5uiUr3O-70" target="QkMC-CX41yp0y5uiUr3O-42">
          <mxGeometry relative="1" as="geometry">
            <Array as="points">
              <mxPoint x="670" y="175" />
              <mxPoint x="670" y="280" />
            </Array>
          </mxGeometry>
        </mxCell>
        <mxCell id="QkMC-CX41yp0y5uiUr3O-70" value="&lt;font style=&quot;font-size: 26px;&quot;&gt;notification-srv&lt;/font&gt;" style="rounded=0;whiteSpace=wrap;html=1;" vertex="1" parent="1">
          <mxGeometry x="900" y="125" width="200" height="100" as="geometry" />
        </mxCell>
        <mxCell id="QkMC-CX41yp0y5uiUr3O-73" style="edgeStyle=orthogonalEdgeStyle;rounded=0;orthogonalLoop=1;jettySize=auto;html=1;exitX=1;exitY=0.5;exitDx=0;exitDy=0;entryX=0;entryY=0.75;entryDx=0;entryDy=0;" edge="1" parent="1" source="QkMC-CX41yp0y5uiUr3O-72" target="QkMC-CX41yp0y5uiUr3O-43">
          <mxGeometry relative="1" as="geometry">
            <Array as="points">
              <mxPoint x="595" y="597.5" />
              <mxPoint x="830" y="597.5" />
              <mxPoint x="830" y="535.5" />
            </Array>
          </mxGeometry>
        </mxCell>
        <mxCell id="QkMC-CX41yp0y5uiUr3O-72" value="&lt;font style=&quot;font-size: 24px;&quot;&gt;lance_realizado&lt;/font&gt;" style="ellipse;whiteSpace=wrap;html=1;" vertex="1" parent="1">
          <mxGeometry x="380" y="560" width="215" height="80" as="geometry" />
        </mxCell>
        <mxCell id="QkMC-CX41yp0y5uiUr3O-80" style="edgeStyle=orthogonalEdgeStyle;rounded=0;orthogonalLoop=1;jettySize=auto;html=1;exitX=0.5;exitY=0;exitDx=0;exitDy=0;entryX=0.25;entryY=1;entryDx=0;entryDy=0;" edge="1" parent="1" source="QkMC-CX41yp0y5uiUr3O-78" target="QkMC-CX41yp0y5uiUr3O-70">
          <mxGeometry relative="1" as="geometry" />
        </mxCell>
        <mxCell id="QkMC-CX41yp0y5uiUr3O-78" value="&lt;font style=&quot;font-size: 24px;&quot;&gt;lance_validado&lt;/font&gt;" style="ellipse;whiteSpace=wrap;html=1;" vertex="1" parent="1">
          <mxGeometry x="730" y="280" width="215" height="80" as="geometry" />
        </mxCell>
        <mxCell id="QkMC-CX41yp0y5uiUr3O-83" style="edgeStyle=orthogonalEdgeStyle;rounded=0;orthogonalLoop=1;jettySize=auto;html=1;exitX=0.5;exitY=0;exitDx=0;exitDy=0;entryX=0.75;entryY=1;entryDx=0;entryDy=0;" edge="1" parent="1" source="QkMC-CX41yp0y5uiUr3O-81" target="QkMC-CX41yp0y5uiUr3O-70">
          <mxGeometry relative="1" as="geometry" />
        </mxCell>
        <mxCell id="QkMC-CX41yp0y5uiUr3O-81" value="&lt;span style=&quot;font-size: 24px;&quot;&gt;leilao_vencedor&lt;/span&gt;" style="ellipse;whiteSpace=wrap;html=1;" vertex="1" parent="1">
          <mxGeometry x="1060" y="280" width="215" height="80" as="geometry" />
        </mxCell>
        <mxCell id="QkMC-CX41yp0y5uiUr3O-85" style="edgeStyle=orthogonalEdgeStyle;rounded=0;orthogonalLoop=1;jettySize=auto;html=1;exitX=0.5;exitY=0;exitDx=0;exitDy=0;entryX=0.5;entryY=1;entryDx=0;entryDy=0;" edge="1" parent="1" source="QkMC-CX41yp0y5uiUr3O-84" target="QkMC-CX41yp0y5uiUr3O-43">
          <mxGeometry relative="1" as="geometry" />
        </mxCell>
        <mxCell id="QkMC-CX41yp0y5uiUr3O-84" value="&lt;font style=&quot;font-size: 24px;&quot;&gt;leilao_finalizado&lt;/font&gt;" style="ellipse;whiteSpace=wrap;html=1;" vertex="1" parent="1">
          <mxGeometry x="892.5" y="600" width="215" height="80" as="geometry" />
        </mxCell>
        <mxCell id="QkMC-CX41yp0y5uiUr3O-99" style="edgeStyle=orthogonalEdgeStyle;rounded=0;orthogonalLoop=1;jettySize=auto;html=1;exitX=0;exitY=0.5;exitDx=0;exitDy=0;entryX=1;entryY=0.5;entryDx=0;entryDy=0;" edge="1" parent="1" source="QkMC-CX41yp0y5uiUr3O-88" target="QkMC-CX41yp0y5uiUr3O-53">
          <mxGeometry relative="1" as="geometry" />
        </mxCell>
        <mxCell id="QkMC-CX41yp0y5uiUr3O-88" value="" style="ellipse;whiteSpace=wrap;html=1;" vertex="1" parent="1">
          <mxGeometry x="40" y="375" width="60" height="30" as="geometry" />
        </mxCell>
        <mxCell id="QkMC-CX41yp0y5uiUr3O-98" style="edgeStyle=orthogonalEdgeStyle;rounded=0;orthogonalLoop=1;jettySize=auto;html=1;exitX=0;exitY=0.5;exitDx=0;exitDy=0;entryX=1;entryY=0.5;entryDx=0;entryDy=0;" edge="1" parent="1" source="QkMC-CX41yp0y5uiUr3O-89" target="QkMC-CX41yp0y5uiUr3O-52">
          <mxGeometry relative="1" as="geometry" />
        </mxCell>
        <mxCell id="QkMC-CX41yp0y5uiUr3O-89" value="" style="ellipse;whiteSpace=wrap;html=1;" vertex="1" parent="1">
          <mxGeometry x="40" y="282.5" width="60" height="30" as="geometry" />
        </mxCell>
        <mxCell id="QkMC-CX41yp0y5uiUr3O-97" style="edgeStyle=orthogonalEdgeStyle;rounded=0;orthogonalLoop=1;jettySize=auto;html=1;exitX=0;exitY=0.5;exitDx=0;exitDy=0;entryX=1;entryY=0.5;entryDx=0;entryDy=0;" edge="1" parent="1" source="QkMC-CX41yp0y5uiUr3O-91" target="QkMC-CX41yp0y5uiUr3O-51">
          <mxGeometry relative="1" as="geometry" />
        </mxCell>
        <mxCell id="QkMC-CX41yp0y5uiUr3O-91" value="" style="ellipse;whiteSpace=wrap;html=1;" vertex="1" parent="1">
          <mxGeometry x="40" y="195" width="60" height="30" as="geometry" />
        </mxCell>
      </root>
    </mxGraphModel>
  </diagram>
</mxfile>
